<svg width="25" height="25" viewBox="0 0 25 25" fill="none" xmlns="http://www.w3.org/2000/svg">
<path d="M12.5 0C5.59692 0 0 5.59692 0 12.5C0 19.4031 5.59692 25 12.5 25C19.4031 25 25 19.4031 25 12.5C25 5.59692 19.4031 0 12.5 0Z" fill="white"/>
<path d="M12.6804 6.88879C13.5789 6.88879 14.3096 7.64309 14.3096 8.57061C14.3096 9.49533 13.5789 10.2496 12.6804 10.2496C11.7819 10.2496 11.0512 9.49533 11.0512 8.57061C11.0512 7.64309 11.7819 6.88879 12.6804 6.88879ZM12.6804 12.6299C14.8508 12.6299 16.6154 10.8084 16.6154 8.57061C16.6154 6.33005 14.8508 4.50854 12.6804 4.50854C10.5099 4.50854 8.74812 6.33005 8.74812 8.57061C8.74812 10.8084 10.5099 12.6299 12.6804 12.6299ZM14.2717 15.9432C15.0728 15.7532 15.8441 15.4264 16.5558 14.9654C17.0944 14.6162 17.2568 13.8815 16.9185 13.3255C16.5775 12.7668 15.8684 12.5991 15.3272 12.9511C13.7169 13.996 11.6439 13.996 10.0309 12.9511C9.49236 12.5991 8.7806 12.7668 8.44231 13.3255C8.10402 13.8815 8.2664 14.6162 8.80495 14.9654C9.51671 15.4264 10.288 15.7532 11.0891 15.9432L8.88885 18.2117C8.4396 18.6755 8.4396 19.4298 8.88885 19.8935C9.11618 20.1254 9.40846 20.2427 9.70345 20.2427C9.99843 20.2427 10.2934 20.1254 10.5208 19.8935L12.6804 17.6641L14.8427 19.8935C15.292 20.3601 16.02 20.3601 16.4719 19.8935C16.9212 19.4298 16.9212 18.6755 16.4719 18.2117L14.2717 15.9432Z" fill="#030A1A"/>
</svg>
