<svg xmlns="http://www.w3.org/2000/svg" xmlns:xlink="http://www.w3.org/1999/xlink"><defs>
<linearGradient id="paint0_linear_1_115" x1="0" y1="3" x2="22.4438" y2="41.104" gradientUnits="userSpaceOnUse">
<stop stop-color="#D10A42"/>
<stop offset="1" stop-color="#0041CA"/>
</linearGradient>
</defs><symbol id="icon-advantages-space" viewBox="0 0 108 75">
<path d="M22.3262 32.4819C20.2461 34.6082 17.9696 35.6714 15.4966 35.6714C11.66 35.6714 8.63232 34.1344 6.41357 31.0605C4.21794 27.9635 3.12012 23.8381 3.12012 18.6841C3.12012 15.356 3.74414 12.3167 4.99219 9.56641C6.24023 6.79297 7.97363 4.64355 10.1924 3.11816C12.4342 1.59277 14.9303 0.830078 17.6807 0.830078C20.5234 0.830078 23.0542 1.67367 25.2729 3.36084C27.4917 5.04801 29.2135 7.47477 30.4385 10.6411C31.6634 13.7843 32.2759 17.3667 32.2759 21.3882V24.959C32.2759 33.5566 30.3807 40.2822 26.5903 45.1357C22.8231 49.9661 17.4727 52.4276 10.5391 52.52H9.53369V44.061H10.1924C14.029 44.0379 16.9064 43.0441 18.8247 41.0796C20.7661 39.1151 21.9333 36.2492 22.3262 32.4819ZM17.9927 27.9751C19.8879 27.9751 21.3786 26.6808 22.4648 24.0923V19.5854C22.4648 16.2804 22.0142 13.6919 21.1128 11.8198C20.2114 9.92464 19.0443 8.97705 17.6113 8.97705C16.2015 8.97705 15.0575 9.91309 14.1792 11.7852C13.3241 13.6341 12.8965 15.8991 12.8965 18.5801C12.8965 21.4922 13.3472 23.7918 14.2485 25.479C15.1499 27.1431 16.3979 27.9751 17.9927 27.9751ZM68.5386 31.1299C68.5386 38.1097 67.2674 43.4486 64.7251 47.1465C62.2059 50.8444 58.6004 52.6934 53.9087 52.6934C49.2632 52.6934 45.6693 50.9022 43.127 47.3198C40.6077 43.7144 39.3019 38.5604 39.2095 31.8579V22.3242C39.2095 15.3675 40.4691 10.0518 42.9883 6.37695C45.5075 2.67904 49.1245 0.830078 53.8394 0.830078C58.5542 0.830078 62.1712 2.65592 64.6904 6.30762C67.2096 9.95931 68.4924 15.1711 68.5386 21.9429V31.1299ZM58.6929 20.9028C58.6929 16.9276 58.3 13.9461 57.5142 11.9585C56.7284 9.97087 55.5034 8.97705 53.8394 8.97705C50.7192 8.97705 49.1014 12.6172 48.9858 19.8975V32.4819C48.9858 36.5496 49.3787 39.5773 50.1646 41.5649C50.9735 43.5526 52.2215 44.5464 53.9087 44.5464C55.5034 44.5464 56.6821 43.6219 57.4448 41.7729C58.2306 39.9009 58.6466 37.0465 58.6929 33.21V20.9028ZM104.455 31.1299C104.455 38.1097 103.183 43.4486 100.641 47.1465C98.1219 50.8444 94.5164 52.6934 89.8247 52.6934C85.1792 52.6934 81.5853 50.9022 79.043 47.3198C76.5238 43.7144 75.2179 38.5604 75.1255 31.8579V22.3242C75.1255 15.3675 76.3851 10.0518 78.9043 6.37695C81.4235 2.67904 85.0405 0.830078 89.7554 0.830078C94.4702 0.830078 98.0872 2.65592 100.606 6.30762C103.126 9.95931 104.408 15.1711 104.455 21.9429V31.1299ZM94.6089 20.9028C94.6089 16.9276 94.216 13.9461 93.4302 11.9585C92.6444 9.97087 91.4194 8.97705 89.7554 8.97705C86.6353 8.97705 85.0174 12.6172 84.9019 19.8975V32.4819C84.9019 36.5496 85.2948 39.5773 86.0806 41.5649C86.8895 43.5526 88.1375 44.5464 89.8247 44.5464C91.4194 44.5464 92.5981 43.6219 93.3608 41.7729C94.1466 39.9009 94.5627 37.0465 94.6089 33.21V20.9028Z" fill="url(#paint0_linear_1_115)"/>
<path d="M2.91211 70.8486H2.22852V74H1.01855V66.6035H2.22852V69.7344H2.83008L4.84668 66.6035H6.28906L3.82129 70.124L6.4668 74H4.94922L2.91211 70.8486ZM7.73828 74V66.6035H10.2197C11.0674 66.6035 11.7145 66.7767 12.1611 67.123C12.6077 67.4694 12.8311 67.973 12.8311 68.6338C12.8311 68.9756 12.7422 69.2832 12.5645 69.5566C12.3867 69.8301 12.127 70.0397 11.7852 70.1855C12.1634 70.2858 12.4665 70.4886 12.6943 70.7939C12.9268 71.0993 13.043 71.4684 13.043 71.9014C13.043 72.585 12.8288 73.1068 12.4004 73.4668C11.9766 73.8223 11.375 74 10.5957 74H7.73828ZM8.94141 70.7529V72.9814H10.6094C11.4251 72.9814 11.833 72.6077 11.833 71.8604C11.833 71.1221 11.4206 70.7529 10.5957 70.7529H8.94141ZM8.94141 69.7412H10.2061C11.1494 69.7412 11.6211 69.3949 11.6211 68.7021C11.6211 68.0049 11.1768 67.6471 10.2881 67.6289H8.94141V69.7412ZM15.0186 74.8545H13.9932L17.4863 64.0469H18.5049L15.0186 74.8545ZM23.5088 72.3252L25.4912 66.6035H26.9951V74H25.792V68.9004L23.9258 74H23.0986L21.1914 68.7773V74H19.9883V66.6035H21.5469L23.5088 72.3252Z" fill="#2E35AC"/>

</symbol><symbol id="icon-facebook-header" viewBox="0 0 12 9">
<path d="M4.55859 5.23242H1.67578V9H0.603516V0.46875H5.04492V1.39453H1.67578V4.3125H4.55859V5.23242ZM6.36914 9V0.46875H8.80078C9.57812 0.46875 10.1621 0.658203 10.5527 1.03711C10.9473 1.41602 11.1445 1.98438 11.1445 2.74219C11.1445 3.14062 11.0449 3.49219 10.8457 3.79688C10.6465 4.10156 10.377 4.33789 10.0371 4.50586C10.4277 4.62305 10.7363 4.86328 10.9629 5.22656C11.1934 5.58984 11.3086 6.02734 11.3086 6.53906C11.3086 7.30469 11.0977 7.90625 10.6758 8.34375C10.2578 8.78125 9.66016 9 8.88281 9H6.36914ZM7.44141 5.00977V8.08008H8.90625C9.3125 8.08008 9.63477 7.94727 9.87305 7.68164C10.1113 7.41211 10.2305 7.03516 10.2305 6.55078C10.2305 5.52344 9.79688 5.00977 8.92969 5.00977H7.44141ZM7.44141 4.10742H8.81836C9.18945 4.10742 9.48828 3.98242 9.71484 3.73242C9.94531 3.48242 10.0605 3.15039 10.0605 2.73633C10.0605 2.26758 9.95703 1.92773 9.75 1.7168C9.54297 1.50195 9.22656 1.39453 8.80078 1.39453H7.44141V4.10742Z" fill="white"/>
</symbol><symbol id="icon-reddit" viewBox="0 0 25 25">
<path d="M12.5 0C5.59692 0 0 5.59692 0 12.5C0 19.4031 5.59692 25 12.5 25C19.4031 25 25 19.4031 25 12.5C25 5.59692 19.4031 0 12.5 0Z" fill="white"/>
<path d="M13.8509 5.55566C13.4055 5.55566 12.9876 5.7816 12.7195 6.10741C12.4514 6.43323 12.3037 6.8304 12.196 7.24897C12.0251 7.92201 11.9723 8.66877 11.9596 9.34181C10.7079 9.42505 9.57444 9.79606 8.63303 10.3692C8.25098 10.0481 7.79083 9.86978 7.34968 9.87454C6.84731 9.87929 6.37028 10.0957 6.01566 10.5404C5.3381 11.3895 5.4162 12.7784 6.20141 13.6036C6.15286 13.8581 6.11698 14.1197 6.11698 14.3837C6.11698 17.1805 8.97498 19.4446 12.5 19.4446C16.025 19.4446 18.883 17.1781 18.883 14.3837C18.883 14.1197 18.8471 13.8581 18.7986 13.6036C19.5838 12.7784 19.6619 11.3895 18.9843 10.5404C18.6297 10.0957 18.1527 9.87929 17.6503 9.87454C17.2091 9.86978 16.749 10.0481 16.3669 10.3692C15.4298 9.79843 14.3026 9.42743 13.0572 9.34181C13.0741 8.72109 13.1184 8.07659 13.243 7.59143C13.3211 7.28702 13.414 7.06584 13.5132 6.94455C13.6124 6.82326 13.6841 6.77332 13.8509 6.77332C14.2118 6.77332 14.2583 6.88985 14.4757 7.17286C14.5854 7.31556 14.7121 7.49393 14.9147 7.66754C15.1174 7.84115 15.4171 7.99098 15.7421 7.99098V6.77332C15.6514 6.77332 15.6345 6.77094 15.5733 6.71624C15.5121 6.66154 15.4276 6.5355 15.3031 6.37378C15.054 6.04796 14.5707 5.55566 13.8509 5.55566ZM17.3632 5.66982C16.5231 5.66982 15.8435 6.43561 15.8435 7.38215C15.8435 8.32869 16.5231 9.09448 17.3632 9.09448C18.2033 9.09448 18.883 8.32869 18.883 7.38215C18.883 6.43561 18.2033 5.66982 17.3632 5.66982ZM17.3632 6.27865C17.9036 6.27865 18.3426 6.77332 18.3426 7.38215C18.3426 7.99098 17.9036 8.48565 17.3632 8.48565C16.8229 8.48565 16.3838 7.99098 16.3838 7.38215C16.3838 6.77332 16.8229 6.27865 17.3632 6.27865ZM12.5 10.2931C15.491 10.2931 18.0218 12.1695 18.0218 14.3837C18.0218 16.6002 15.491 18.4742 12.5 18.4742C9.50901 18.4742 6.97818 16.6002 6.97818 14.3837C6.97818 12.1695 9.50901 10.2931 12.5 10.2931ZM7.36656 10.8449C7.51643 10.8472 7.67263 10.8853 7.82249 10.959C7.28002 11.4228 6.84942 11.9555 6.55602 12.5572C6.35339 12.0863 6.40827 11.4989 6.65734 11.1873C6.83887 10.959 7.09005 10.8425 7.36656 10.8449ZM17.6334 10.8449C17.9099 10.8425 18.1611 10.959 18.3426 11.1873C18.5917 11.4989 18.6466 12.0863 18.4439 12.5572C18.1506 11.9555 17.72 11.4228 17.1775 10.959C17.3273 10.8853 17.4835 10.8472 17.6334 10.8449ZM10.3385 12.3669C9.79819 12.3669 9.35914 12.8616 9.35914 13.4704C9.35914 14.0793 9.79819 14.5739 10.3385 14.5739C10.8789 14.5739 11.3179 14.0793 11.3179 13.4704C11.3179 12.8616 10.8789 12.3669 10.3385 12.3669ZM14.6614 12.3669C14.1211 12.3669 13.682 12.8616 13.682 13.4704C13.682 14.0793 14.1211 14.5739 14.6614 14.5739C15.2018 14.5739 15.6408 14.0793 15.6408 13.4704C15.6408 12.8616 15.2018 12.3669 14.6614 12.3669ZM9.81507 16.115C10.1591 16.9165 11.223 17.6942 12.5 17.6942C13.777 17.6942 14.8577 16.9165 15.2018 16.115C14.577 16.5693 13.5913 16.8761 12.5 16.8761C11.4087 16.8761 10.4399 16.5693 9.81507 16.115Z" fill="#030A1A"/>
</symbol><symbol id="icon-insta-header" viewBox="0 0 10 10">
<path d="M1.94922 9H0.876953V0.46875H1.94922V9ZM9.16797 7.93945L8.98047 8.17383C8.44141 8.80273 7.65234 9.11719 6.61328 9.11719C5.69141 9.11719 4.9668 8.8125 4.43945 8.20312C3.91602 7.58984 3.64844 6.72461 3.63672 5.60742V3.93164C3.63672 2.73633 3.875 1.8418 4.35156 1.24805C4.83203 0.650391 5.54883 0.351562 6.50195 0.351562C7.31445 0.351562 7.94922 0.578125 8.40625 1.03125C8.86719 1.48437 9.12109 2.13086 9.16797 2.9707H8.0957C8.05273 2.43945 7.9043 2.02539 7.65039 1.72852C7.40039 1.42773 7.01953 1.27734 6.50781 1.27734C5.89453 1.27734 5.44531 1.47852 5.16016 1.88086C4.875 2.2793 4.72656 2.91797 4.71484 3.79688V5.53711C4.71484 6.39648 4.87891 7.05664 5.20703 7.51758C5.53516 7.97461 6.00586 8.20312 6.61914 8.20312C7.19727 8.20312 7.63672 8.0625 7.9375 7.78125L8.0957 7.63477V5.66602H6.53711V4.75195H9.16797V7.93945Z" fill="white"/>
</symbol><symbol id="icon-odnoklassniki" viewBox="0 0 25 25">
<path d="M12.5 0C5.59692 0 0 5.59692 0 12.5C0 19.4031 5.59692 25 12.5 25C19.4031 25 25 19.4031 25 12.5C25 5.59692 19.4031 0 12.5 0Z" fill="white"/>
<path d="M12.6804 6.88879C13.5789 6.88879 14.3096 7.64309 14.3096 8.57061C14.3096 9.49533 13.5789 10.2496 12.6804 10.2496C11.7819 10.2496 11.0512 9.49533 11.0512 8.57061C11.0512 7.64309 11.7819 6.88879 12.6804 6.88879ZM12.6804 12.6299C14.8508 12.6299 16.6154 10.8084 16.6154 8.57061C16.6154 6.33005 14.8508 4.50854 12.6804 4.50854C10.5099 4.50854 8.74812 6.33005 8.74812 8.57061C8.74812 10.8084 10.5099 12.6299 12.6804 12.6299ZM14.2717 15.9432C15.0728 15.7532 15.8441 15.4264 16.5558 14.9654C17.0944 14.6162 17.2568 13.8815 16.9185 13.3255C16.5775 12.7668 15.8684 12.5991 15.3272 12.9511C13.7169 13.996 11.6439 13.996 10.0309 12.9511C9.49236 12.5991 8.7806 12.7668 8.44231 13.3255C8.10402 13.8815 8.2664 14.6162 8.80495 14.9654C9.51671 15.4264 10.288 15.7532 11.0891 15.9432L8.88885 18.2117C8.4396 18.6755 8.4396 19.4298 8.88885 19.8935C9.11618 20.1254 9.40846 20.2427 9.70345 20.2427C9.99843 20.2427 10.2934 20.1254 10.5208 19.8935L12.6804 17.6641L14.8427 19.8935C15.292 20.3601 16.02 20.3601 16.4719 19.8935C16.9212 19.4298 16.9212 18.6755 16.4719 18.2117L14.2717 15.9432Z" fill="#030A1A"/>
</symbol><symbol id="icon-logo-mobile" viewBox="0 0 67 16">
<path d="M0.52 4.36C0.52 3.22667 0.793333 2.36 1.34 1.76C1.88667 1.14667 2.69333 0.84 3.76 0.84C4.82667 0.84 5.63333 1.14667 6.18 1.76C6.72667 2.36 7 3.22667 7 4.36V4.8H4.92V4.22C4.92 3.3 4.55333 2.84 3.82 2.84C3.08667 2.84 2.72 3.3 2.72 4.22C2.72 4.74 2.86667 5.23333 3.16 5.7C3.45333 6.15333 3.80667 6.56667 4.22 6.94C4.64667 7.31333 5.07333 7.70667 5.5 8.12C5.92667 8.52 6.28667 9.02667 6.58 9.64C6.87333 10.24 7.02 10.9067 7.02 11.64C7.02 12.7733 6.74 13.6467 6.18 14.26C5.62 14.86 4.80667 15.16 3.74 15.16C2.67333 15.16 1.86 14.86 1.3 14.26C0.74 13.6467 0.46 12.7733 0.46 11.64V10.78H2.54V11.78C2.54 12.6867 2.92 13.14 3.68 13.14C4.44 13.14 4.82 12.6867 4.82 11.78C4.82 11.26 4.67333 10.7733 4.38 10.32C4.08667 9.85333 3.72667 9.43333 3.3 9.06C2.88667 8.68667 2.46667 8.3 2.04 7.9C1.61333 7.48667 1.25333 6.98 0.96 6.38C0.666667 5.76667 0.52 5.09333 0.52 4.36ZM8.58047 0.999999H10.7805V11.8C10.7805 12.7067 11.1605 13.16 11.9205 13.16C12.6805 13.16 13.0605 12.7067 13.0605 11.8V0.999999H15.1405V11.66C15.1405 12.7933 14.8605 13.6667 14.3005 14.28C13.7405 14.88 12.9271 15.18 11.8605 15.18C10.7938 15.18 9.98047 14.88 9.42047 14.28C8.86047 13.6667 8.58047 12.7933 8.58047 11.66V0.999999ZM20.2892 0.999999C22.4759 0.999999 23.5692 2.15333 23.5692 4.46V6.28C23.5692 8.58667 22.4759 9.74 20.2892 9.74H19.2492V15H17.0492V0.999999H20.2892ZM20.2892 3H19.2492V7.74H20.2892C20.6492 7.74 20.9159 7.64 21.0892 7.44C21.2759 7.24 21.3692 6.9 21.3692 6.42V4.32C21.3692 3.84 21.2759 3.5 21.0892 3.3C20.9159 3.1 20.6492 3 20.2892 3ZM27.1883 3V6.9H30.2083V8.9H27.1883V13H30.9883V15H24.9883V0.999999H30.9883V3H27.1883ZM39.5916 15H37.3516C37.2182 14.6 37.1516 14.0267 37.1516 13.28V11.08C37.1516 10.44 37.0382 9.98667 36.8116 9.72C36.5849 9.44 36.2182 9.3 35.7116 9.3H34.9516V15H32.7516V0.999999H36.0716C37.2049 0.999999 38.0316 1.26667 38.5516 1.8C39.0716 2.32 39.3316 3.12667 39.3316 4.22V5.32C39.3316 6.76 38.8516 7.70667 37.8916 8.16C38.8649 8.57333 39.3516 9.56667 39.3516 11.14V13.3C39.3516 14.06 39.4316 14.6267 39.5916 15ZM36.0116 3H34.9516V7.3H35.8116C36.2516 7.3 36.5782 7.18667 36.7916 6.96C37.0182 6.73333 37.1316 6.35333 37.1316 5.82V4.44C37.1316 3.48 36.7582 3 36.0116 3ZM44.4984 9.2V7.2H47.5784V11.64C47.5784 12.7733 47.2984 13.6467 46.7384 14.26C46.1784 14.86 45.3651 15.16 44.2984 15.16C43.2318 15.16 42.4184 14.86 41.8584 14.26C41.2984 13.6467 41.0184 12.7733 41.0184 11.64V4.36C41.0184 3.22667 41.2984 2.36 41.8584 1.76C42.4184 1.14667 43.2318 0.84 44.2984 0.84C45.3651 0.84 46.1784 1.14667 46.7384 1.76C47.2984 2.36 47.5784 3.22667 47.5784 4.36V5.72H45.4984V4.22C45.4984 3.3 45.1184 2.84 44.3584 2.84C43.5984 2.84 43.2184 3.3 43.2184 4.22V11.78C43.2184 12.6867 43.5984 13.14 44.3584 13.14C45.1184 13.14 45.4984 12.6867 45.4984 11.78V9.2H44.4984ZM51.1584 15V10.36L48.3784 0.999999H50.6784L52.3584 7.38L54.0384 0.999999H56.1384L53.3584 10.36V15H51.1584ZM60.4681 0.999999L62.0881 10.94L63.5881 0.999999H66.6481V15H64.5681V4.96L63.0481 15H60.9681L59.3281 5.1V15H57.4081V0.999999H60.4681Z" fill="white"/>
</symbol><symbol id="icon-logo-tablet" viewBox="0 0 80 18">
<path d="M0.624 4.232C0.624 2.872 0.952 1.832 1.608 1.112C2.264 0.375999 3.232 0.0079999 4.512 0.0079999C5.792 0.0079999 6.76 0.375999 7.416 1.112C8.072 1.832 8.4 2.872 8.4 4.232V4.76H5.904V4.064C5.904 2.96 5.464 2.408 4.584 2.408C3.704 2.408 3.264 2.96 3.264 4.064C3.264 4.688 3.44 5.28 3.792 5.84C4.144 6.384 4.568 6.88 5.064 7.328C5.576 7.776 6.088 8.248 6.6 8.744C7.112 9.224 7.544 9.832 7.896 10.568C8.248 11.288 8.424 12.088 8.424 12.968C8.424 14.328 8.088 15.376 7.416 16.112C6.744 16.832 5.768 17.192 4.488 17.192C3.208 17.192 2.232 16.832 1.56 16.112C0.888 15.376 0.552 14.328 0.552 12.968V11.936H3.048V13.136C3.048 14.224 3.504 14.768 4.416 14.768C5.328 14.768 5.784 14.224 5.784 13.136C5.784 12.512 5.608 11.928 5.256 11.384C4.904 10.824 4.472 10.32 3.96 9.872C3.464 9.424 2.96 8.96 2.448 8.48C1.936 7.984 1.504 7.376 1.152 6.656C0.8 5.92 0.624 5.112 0.624 4.232ZM10.2966 0.199999H12.9366V13.16C12.9366 14.248 13.3926 14.792 14.3046 14.792C15.2166 14.792 15.6726 14.248 15.6726 13.16V0.199999H18.1686V12.992C18.1686 14.352 17.8326 15.4 17.1606 16.136C16.4886 16.856 15.5126 17.216 14.2326 17.216C12.9526 17.216 11.9766 16.856 11.3046 16.136C10.6326 15.4 10.2966 14.352 10.2966 12.992V0.199999ZM24.3471 0.199999C26.9711 0.199999 28.2831 1.584 28.2831 4.352V6.536C28.2831 9.304 26.9711 10.688 24.3471 10.688H23.0991V17H20.4591V0.199999H24.3471ZM24.3471 2.6H23.0991V8.288H24.3471C24.7791 8.288 25.0991 8.168 25.3071 7.928C25.5311 7.688 25.6431 7.28 25.6431 6.704V4.184C25.6431 3.608 25.5311 3.2 25.3071 2.96C25.0991 2.72 24.7791 2.6 24.3471 2.6ZM32.6259 2.6V7.28H36.2499V9.68H32.6259V14.6H37.1859V17H29.9859V0.199999H37.1859V2.6H32.6259ZM47.5099 17H44.8219C44.6619 16.52 44.5819 15.832 44.5819 14.936V12.296C44.5819 11.528 44.4459 10.984 44.1739 10.664C43.9019 10.328 43.4619 10.16 42.8539 10.16H41.9419V17H39.3019V0.199999H43.2859C44.6459 0.199999 45.6379 0.519999 46.2619 1.16C46.8859 1.784 47.1979 2.752 47.1979 4.064V5.384C47.1979 7.112 46.6219 8.248 45.4699 8.792C46.6379 9.288 47.2219 10.48 47.2219 12.368V14.96C47.2219 15.872 47.3179 16.552 47.5099 17ZM43.2139 2.6H41.9419V7.76H42.9739C43.5019 7.76 43.8939 7.624 44.1499 7.352C44.4219 7.08 44.5579 6.624 44.5579 5.984V4.328C44.5579 3.176 44.1099 2.6 43.2139 2.6ZM53.3981 10.04V7.64H57.0941V12.968C57.0941 14.328 56.7581 15.376 56.0861 16.112C55.4141 16.832 54.4381 17.192 53.1581 17.192C51.8781 17.192 50.9021 16.832 50.2301 16.112C49.5581 15.376 49.2221 14.328 49.2221 12.968V4.232C49.2221 2.872 49.5581 1.832 50.2301 1.112C50.9021 0.375999 51.8781 0.0079999 53.1581 0.0079999C54.4381 0.0079999 55.4141 0.375999 56.0861 1.112C56.7581 1.832 57.0941 2.872 57.0941 4.232V5.864H54.5981V4.064C54.5981 2.96 54.1421 2.408 53.2301 2.408C52.3181 2.408 51.8621 2.96 51.8621 4.064V13.136C51.8621 14.224 52.3181 14.768 53.2301 14.768C54.1421 14.768 54.5981 14.224 54.5981 13.136V10.04H53.3981ZM61.3901 17V11.432L58.0541 0.199999H60.8141L62.8301 7.856L64.8461 0.199999H67.3661L64.0301 11.432V17H61.3901ZM72.5618 0.199999L74.5058 12.128L76.3058 0.199999H79.9778V17H77.4818V4.952L75.6578 17H73.1618L71.1938 5.12V17H68.8898V0.199999H72.5618Z" fill="white"/>
<symbol id="icon-vk" viewBox="0 0 25 25">
<path d="M12.5 0C5.59692 0 0 5.59692 0 12.5C0 19.4031 5.59692 25 12.5 25C19.4031 25 25 19.4031 25 12.5C25 5.59692 19.4031 0 12.5 0Z" fill="white"/>
<path d="M13.7227 15.0518C14.1654 14.9087 14.7322 15.9964 15.3355 16.4127C15.7884 16.728 16.1352 16.6599 16.1352 16.6599L17.7434 16.6368C17.7434 16.6368 18.5839 16.5849 18.1866 15.9172C18.1537 15.8616 17.9536 15.4222 16.9896 14.5179C15.9815 13.5718 16.1181 13.7251 17.3318 12.0896C18.0713 11.0927 18.3671 10.4838 18.2745 10.2244C18.1856 9.97486 17.6425 10.0397 17.6425 10.0397L15.8305 10.0522C15.6541 10.0527 15.5046 10.1073 15.4365 10.2907C15.4351 10.2925 15.1489 11.0621 14.7674 11.7164C13.9612 13.1005 13.6394 13.1741 13.506 13.0875C13.2 12.887 13.2773 12.2832 13.2773 11.8539C13.2773 10.5125 13.4773 9.9531 12.8855 9.80863C12.6878 9.76047 12.5433 9.72898 12.0391 9.72435C11.3945 9.71463 10.8472 9.72435 10.5369 9.8767C10.3309 9.97996 10.173 10.2064 10.2688 10.2194C10.3892 10.2356 10.6592 10.2934 10.8037 10.4907C10.9893 10.7463 10.9838 11.3191 10.9838 11.3191C10.9838 11.3191 11.0898 12.8986 10.7337 13.0944C10.4893 13.2287 10.1549 12.9546 9.43581 11.6979C9.06861 11.0552 8.79124 10.3448 8.79124 10.3448C8.79124 10.3448 8.73753 10.2129 8.64029 10.1406C8.52452 10.055 8.36246 10.0277 8.36246 10.0277L6.64268 10.0388C6.64268 10.0388 6.3843 10.0462 6.28938 10.1601C6.2051 10.261 6.28243 10.4694 6.28243 10.4694C6.28243 10.4694 7.62945 13.6557 9.15474 15.2606C10.5532 16.734 12.1423 16.6363 12.1423 16.6363H12.8624C12.8624 16.6363 13.0796 16.6113 13.1907 16.4918C13.2944 16.3807 13.2898 16.1719 13.2898 16.1719C13.2898 16.1719 13.2754 15.1953 13.7227 15.0518Z" fill="#030A1A"/>
</symbol><symbol id="icon-logo" viewBox="0 0 87 20">
<path d="M0.676 5.168C0.676 3.69467 1.03133 2.568 1.742 1.788C2.45267 0.990666 3.50133 0.592 4.888 0.592C6.27467 0.592 7.32333 0.990666 8.034 1.788C8.74467 2.568 9.1 3.69467 9.1 5.168V5.74H6.396V4.986C6.396 3.79 5.91933 3.192 4.966 3.192C4.01267 3.192 3.536 3.79 3.536 4.986C3.536 5.662 3.72667 6.30333 4.108 6.91C4.48933 7.49933 4.94867 8.03667 5.486 8.522C6.04067 9.00733 6.59533 9.51867 7.15 10.056C7.70467 10.576 8.17267 11.2347 8.554 12.032C8.93533 12.812 9.126 13.6787 9.126 14.632C9.126 16.1053 8.762 17.2407 8.034 18.038C7.306 18.818 6.24867 19.208 4.862 19.208C3.47533 19.208 2.418 18.818 1.69 18.038C0.962 17.2407 0.598 16.1053 0.598 14.632V13.514H3.302V14.814C3.302 15.9927 3.796 16.582 4.784 16.582C5.772 16.582 6.266 15.9927 6.266 14.814C6.266 14.138 6.07533 13.5053 5.694 12.916C5.31267 12.3093 4.84467 11.7633 4.29 11.278C3.75267 10.7927 3.20667 10.29 2.652 9.77C2.09733 9.23267 1.62933 8.574 1.248 7.794C0.866667 6.99667 0.676 6.12133 0.676 5.168ZM11.1546 0.799999H14.0146V14.84C14.0146 16.0187 14.5086 16.608 15.4966 16.608C16.4846 16.608 16.9786 16.0187 16.9786 14.84V0.799999H19.6826V14.658C19.6826 16.1313 19.3186 17.2667 18.5906 18.064C17.8626 18.844 16.8053 19.234 15.4186 19.234C14.0319 19.234 12.9746 18.844 12.2466 18.064C11.5186 17.2667 11.1546 16.1313 11.1546 14.658V0.799999ZM26.376 0.799999C29.2187 0.799999 30.64 2.29933 30.64 5.298V7.664C30.64 10.6627 29.2187 12.162 26.376 12.162H25.024V19H22.164V0.799999H26.376ZM26.376 3.4H25.024V9.562H26.376C26.844 9.562 27.1907 9.432 27.416 9.172C27.6587 8.912 27.78 8.47 27.78 7.846V5.116C27.78 4.492 27.6587 4.05 27.416 3.79C27.1907 3.53 26.844 3.4 26.376 3.4ZM35.3448 3.4V8.47H39.2708V11.07H35.3448V16.4H40.2848V19H32.4848V0.799999H40.2848V3.4H35.3448ZM51.469 19H48.557C48.3837 18.48 48.297 17.7347 48.297 16.764V13.904C48.297 13.072 48.1497 12.4827 47.855 12.136C47.5604 11.772 47.0837 11.59 46.425 11.59H45.437V19H42.577V0.799999H46.893C48.3664 0.799999 49.441 1.14667 50.117 1.84C50.793 2.516 51.131 3.56467 51.131 4.986V6.416C51.131 8.288 50.507 9.51867 49.259 10.108C50.5244 10.6453 51.157 11.9367 51.157 13.982V16.79C51.157 17.778 51.261 18.5147 51.469 19ZM46.815 3.4H45.437V8.99H46.555C47.127 8.99 47.5517 8.84267 47.829 8.548C48.1237 8.25333 48.271 7.75933 48.271 7.066V5.272C48.271 4.024 47.7857 3.4 46.815 3.4ZM57.848 11.46V8.86H61.852V14.632C61.852 16.1053 61.488 17.2407 60.76 18.038C60.032 18.818 58.9746 19.208 57.588 19.208C56.2013 19.208 55.144 18.818 54.416 18.038C53.688 17.2407 53.324 16.1053 53.324 14.632V5.168C53.324 3.69467 53.688 2.568 54.416 1.788C55.144 0.990666 56.2013 0.592 57.588 0.592C58.9746 0.592 60.032 0.990666 60.76 1.788C61.488 2.568 61.852 3.69467 61.852 5.168V6.936H59.148V4.986C59.148 3.79 58.654 3.192 57.666 3.192C56.678 3.192 56.184 3.79 56.184 4.986V14.814C56.184 15.9927 56.678 16.582 57.666 16.582C58.654 16.582 59.148 15.9927 59.148 14.814V11.46H57.848ZM66.506 19V12.968L62.892 0.799999H65.882L68.066 9.094L70.25 0.799999H72.98L69.366 12.968V19H66.506ZM78.6086 0.799999L80.7146 13.722L82.6646 0.799999H86.6426V19H83.9386V5.948L81.9626 19H79.2586L77.1266 6.13V19H74.6306V0.799999H78.6086Z" fill="white"/>
</symbol><symbol id="icon-slider-arrow" viewBox="0 0 18 34">
<path d="M17 1L0.999999 17L17 33" stroke="#AFAFAF"/>
</symbol><symbol id="icon-video" viewBox="0 0 13 15">
<path d="M13 7.5L0.249999 14.8612L0.25 0.138783L13 7.5Z" fill="white"/>
</symbol><symbol id="icon-vk-header" viewBox="0 0 14 9">
<path d="M4.0918 7.35352L6.04297 0.46875H7.2207L4.56641 9H3.62891L0.980469 0.46875H2.15234L4.0918 7.35352ZM10.291 5.06836L9.45312 6.08203V9H8.38086V0.46875H9.45312V4.58789L10.1562 3.65625L12.4531 0.46875H13.7422L10.9707 4.22461L13.959 9H12.6758L10.291 5.06836Z" fill="white"/>
</symbol><symbol id="icon-vk" viewBox="0 0 24 13">
<path fill-rule="evenodd" clip-rule="evenodd" d="M20.6554 8.26599C21.4515 9.00996 22.2918 9.70992 23.0058 10.5289C23.3212 10.8929 23.6199 11.2684 23.8483 11.6908C24.172 12.2912 23.8788 12.9519 23.3163 12.9878L19.82 12.9863C18.9182 13.0579 18.1988 12.7104 17.5939 12.1203C17.1098 11.6483 16.6615 11.146 16.1961 10.6581C16.0052 10.4587 15.8055 10.2711 15.5669 10.1228C15.0896 9.82623 14.6753 9.91703 14.4025 10.3935C14.1247 10.8781 14.0617 11.4148 14.0344 11.9549C13.997 12.7429 13.7481 12.9501 12.9211 12.9862C11.1537 13.066 9.47629 12.81 7.91806 11.9566C6.54426 11.2043 5.47894 10.1422 4.5517 8.93977C2.74634 6.59842 1.36379 4.02567 0.121208 1.38084C-0.158487 0.784951 0.0460603 0.465084 0.732957 0.453762C1.87358 0.432554 3.01405 0.434063 4.15601 0.452253C4.61959 0.458744 4.92649 0.713249 5.10549 1.13244C5.7226 2.58483 6.47771 3.96665 7.42553 5.24748C7.67794 5.58848 7.93532 5.92948 8.30184 6.16949C8.7073 6.43524 9.01602 6.34716 9.20677 5.91484C9.32781 5.64071 9.3808 5.34544 9.40808 5.05184C9.49845 4.04175 9.51035 3.03338 9.35186 2.02684C9.25455 1.39865 8.88488 0.991982 8.23 0.873108C7.89582 0.8125 7.94558 0.693475 8.10738 0.510898C8.38842 0.196012 8.65274 0 9.17964 0H13.1311C13.7532 0.117516 13.8913 0.385004 13.9765 0.984133L13.9799 5.18536C13.9731 5.4173 14.1009 6.10556 14.5374 6.25908C14.8867 6.36837 15.117 6.10088 15.3265 5.88887C16.2726 4.92776 16.9479 3.79192 17.5511 2.61578C17.8188 2.09861 18.049 1.56153 18.2721 1.02489C18.4373 0.626678 18.6967 0.430742 19.1653 0.439422L22.9684 0.442667C23.0811 0.442667 23.1952 0.444252 23.3044 0.46214C23.9453 0.566675 24.1209 0.830539 23.923 1.42952C23.6111 2.36927 23.0043 3.15241 22.411 3.93917C21.7768 4.77915 21.0985 5.59036 20.4696 6.43532C19.8917 7.20691 19.9376 7.59584 20.6554 8.26599Z" fill="white"/>
</symbol>
</svg>
